<?xml version="1.0" encoding="UTF-8"?>
<svg id="Layer_2" xmlns="http://www.w3.org/2000/svg" version="1.1" viewBox="0 0 256.2 31.9">
  <!-- Generator: Adobe Illustrator 30.1.0, SVG Export Plug-In . SVG Version: 2.1.1 Build 136)  -->
  <defs>
    <style>
      .st0 {
        fill: #fff;
      }
    </style>
  </defs>
  <path class="st0" d="M18.3,13.5c-.3-.7-.4-1.5-.4-2.3V3.7c0-.2,0-.5.3-.6l1.2-1.3c.3-.3.3-.7.2-1.1-.2-.4-.5-.6-.9-.6H5.3c-.4,0-.8.2-.9.6-.2.4,0,.8.2,1.1l1.2,1.3c.2.2.3.4.3.6v7.6c0,.8-.1,1.5-.4,2.3L.2,27.4c-.4,1-.3,2.2.3,3.1.6.9,1.6,1.4,2.7,1.4h17.3c1.1,0,2.1-.5,2.7-1.4.6-.9.7-2.1.3-3.1l-5.4-13.8Z"/>
  <polygon class="st0" points="38.1 7.6 34.4 7.6 34.4 24.6 45.9 24.6 45.9 21.5 38.1 21.5 38.1 7.6"/>
  <rect class="st0" x="47.5" y="7.3" width="3.7" height="2.9"/>
  <rect class="st0" x="47.6" y="11.7" width="3.6" height="12.9"/>
  <polygon class="st0" points="59.9 21 56.8 11.7 53 11.7 57.7 24.6 61.9 24.6 66.6 11.7 62.9 11.7 59.9 21"/>
  <path class="st0" d="M77.2,12.3c-.9-.6-2.1-.8-3.3-.8s-2.4.3-3.4.8c-1,.6-1.7,1.3-2.2,2.3-.5,1-.8,2.2-.8,3.5s.3,2.5.8,3.6c.5,1,1.3,1.8,2.3,2.3,1,.6,2.1.8,3.4.8s2.9-.4,4-1.1,1.8-1.7,2.1-3l-3.6-.2c-.2.5-.5.9-.9,1.2s-.9.4-1.5.4-1.5-.2-2-.7c-.5-.5-.8-1.3-.8-2.3h9v-.7c0-1.4-.3-2.7-.8-3.7-.5-1-1.3-1.8-2.2-2.4ZM71.1,16.9c0-.9.4-1.6.9-2.1.5-.5,1.1-.7,1.9-.7s1.4.2,1.8.7.7,1.2.8,2.1h-5.4Z"/>
  <path class="st0" d="M86.7,12.6c-.4.4-.7,1-.9,1.8v-2.6h-3.5v12.9h3.6v-7.2c0-.7.1-1.2.3-1.6s.5-.7,1-.8c.4-.2,1-.3,1.7-.3h1.2v-3h-1.2c-.9,0-1.7.3-2.2.9Z"/>
  <path class="st0" d="M97.6,20.6l-3-8.9h-3.7l4.5,12.2h1l-.3.7c-.1.3-.3.5-.5.6-.2.1-.5.2-.9.2h-1.7v2.7h2.4c1,0,1.7-.2,2.3-.6s1-1,1.2-1.8l4.9-14.1h-3.7l-2.8,8.9Z"/>
  <polygon class="st0" points="109.9 7.6 106.3 7.6 106.3 24.6 117.8 24.6 117.8 21.5 109.9 21.5 109.9 7.6"/>
  <path class="st0" d="M131.7,22c-.1-.1-.2-.4-.2-.7v-4.4c0-1.8-.5-3.1-1.5-4-1-.9-2.4-1.4-4.3-1.4s-3,.4-4.1,1.1c-1,.7-1.7,1.8-1.9,3.2l3.6.2c.1-.6.4-1.1.7-1.4.4-.3.9-.5,1.6-.5s1.2.2,1.6.6c.4.4.6,1.1.6,1.9l-4.2.8c-1.4.3-2.4.7-3.2,1.4s-1.1,1.5-1.1,2.6.4,2,1.3,2.6c.8.6,1.9.9,3.3.9s1.6-.1,2.2-.4c.6-.2,1.2-.6,1.6-1,.3-.3.4-.6.6-.9,0,.4.2.7.3,1,.3.4.6.7,1.1.9.4.2.9.3,1.4.3s.5,0,.7,0c.2,0,.4,0,.5,0v-2.5h-.4c-.2,0-.4,0-.5-.2ZM127.9,19.5c0,.6-.1,1.1-.4,1.6s-.6.8-1.1,1c-.4.2-1,.3-1.6.3s-1-.1-1.2-.4-.4-.6-.4-1,.1-.8.4-1c.3-.3.7-.5,1.3-.6l2.9-.6v.6Z"/>
  <path class="st0" d="M144.5,12.3c-.8-.6-1.7-.8-2.8-.8s-1.6.2-2.3.6-1.2.9-1.5,1.5v-6h-3.6v17h3.4v-1.9c.4.7,1,1.2,1.6,1.6s1.4.6,2.3.6,2-.3,2.8-.8,1.4-1.3,1.9-2.3c.4-1,.7-2.2.7-3.6s-.2-2.5-.7-3.6c-.4-1-1.1-1.8-1.9-2.3ZM142.6,21.1c-.5.7-1.1,1-1.9,1s-1.1-.2-1.5-.5c-.4-.3-.7-.8-1-1.4-.2-.6-.3-1.3-.3-2.1s.1-1.5.3-2.1c.2-.6.5-1,1-1.4.4-.3.9-.5,1.5-.5s1.4.3,1.9,1c.5.7.7,1.7.7,2.9s-.2,2.2-.7,2.9Z"/>
  <path class="st0" d="M165.8,17.3c-.5-.4-1.1-.6-1.8-.7.4-.1.9-.3,1.3-.5.6-.4,1.1-.9,1.5-1.5.4-.6.5-1.3.5-2.1s-.2-1.9-.7-2.7-1.1-1.3-2-1.7c-.9-.4-1.9-.6-3.1-.6h-6v17h1.2v-7.3h5.4c1.2,0,2.1.2,2.6.6.6.4.9,1.1.9,1.9l.4,4.7h1.2l-.4-4.8c0-1.1-.4-1.9-1.1-2.4ZM161.8,16h-5.1v-7.5h4.8c1.5,0,2.6.3,3.4,1s1.1,1.6,1.1,2.8-.4,2.1-1.1,2.7-1.8.9-3.1.9Z"/>
  <path class="st0" d="M178.2,12.3c-.8-.6-1.8-.9-3-.9s-2.2.3-3,.9c-.8.6-1.4,1.4-1.9,2.4-.4,1-.6,2.1-.6,3.4s.2,2.4.6,3.4c.4,1,1.1,1.8,1.9,2.4s1.9.9,3.1.9,2.4-.4,3.3-1.1c.9-.7,1.5-1.6,1.8-2.7h-1.2c-.2.7-.7,1.4-1.3,1.9s-1.5.8-2.5.8-2.3-.5-3.1-1.4-1.2-2.2-1.3-3.9h9.8v-.4c0-1.2-.2-2.4-.6-3.3-.4-1-1-1.8-1.8-2.3ZM170.9,17.4c.1-1.5.6-2.7,1.3-3.5.8-.8,1.8-1.3,3-1.3s2.3.4,3,1.3c.7.8,1.1,2,1.2,3.5h-8.5Z"/>
  <path class="st0" d="M191.9,12.3c-.8-.6-1.8-.9-2.9-.9s-2.1.3-2.9,1c-.6.5-1.1,1.3-1.5,2.2v-2.9h-1.1v16.3h1.2v-6.3c.1.4.3.8.6,1.1.4.6,1,1,1.6,1.4.6.3,1.3.5,2.1.5,1.1,0,2.1-.3,2.9-.9.8-.6,1.4-1.4,1.8-2.4.4-1,.6-2.1.6-3.4s-.2-2.4-.6-3.4c-.4-1-1-1.8-1.8-2.4ZM192,22.2c-.7,1-1.7,1.5-3,1.5s-1.6-.2-2.2-.7c-.6-.5-1.1-1.1-1.5-1.9-.4-.8-.5-1.8-.5-2.9s.2-2,.5-2.9c.4-.8.9-1.5,1.5-1.9s1.4-.7,2.2-.7c1.3,0,2.3.5,3,1.5.7,1,1.1,2.3,1.1,4s-.4,3.1-1.1,4Z"/>
  <path class="st0" d="M206.9,23.1c-.2-.2-.3-.5-.3-1.1v-5.4c0-1.7-.4-3-1.2-3.9-.8-.9-2-1.3-3.5-1.3s-2.5.4-3.4,1.1c-.9.7-1.4,1.7-1.6,3h1.2c.2-.9.6-1.6,1.2-2.1.6-.5,1.5-.8,2.6-.8s2.1.3,2.7,1,.9,1.7.9,3.2l-4.9.9c-1.2.2-2.2.6-2.9,1.2-.7.6-1,1.4-1,2.4s.4,1.9,1.1,2.5,1.8.9,3,.9,1.5-.1,2.2-.4c.7-.3,1.2-.7,1.7-1.1.3-.4.6-.7.8-1.1,0,.6,0,1,.2,1.3.2.4.4.7.7.9s.7.2,1.1.2h.3c0,0,.2,0,.2,0v-1.1h-.3c-.3,0-.6,0-.8-.3ZM203.3,23.1c-.7.4-1.5.6-2.4.6s-1.7-.2-2.2-.6-.8-1-.8-1.8.3-1.2.8-1.6,1.2-.7,2.2-.9l4.7-.9v1.6c0,.8-.2,1.5-.6,2.2-.4.6-.9,1.1-1.6,1.5Z"/>
  <rect class="st0" x="210.3" y="7.6" width="1.2" height="1.9"/>
  <rect class="st0" x="210.4" y="11.7" width="1.2" height="12.7"/>
  <path class="st0" d="M223.5,12.1c-.6-.4-1.4-.6-2.4-.6s-1.4.1-2,.4c-.6.3-1.1.7-1.5,1.2-.3.4-.5.8-.6,1.3v-2.6h-1.1v12.7h1.2v-7.6c0-1.3.4-2.4,1.1-3.1s1.7-1.2,2.9-1.2,1.4.2,1.9.5c.5.4.8.9,1.1,1.5.2.6.3,1.4.3,2.3v7.6h1.2v-8.2c0-.9-.2-1.7-.5-2.4-.3-.7-.8-1.3-1.4-1.7Z"/>
  <path class="st0" d="M230.8,8.8h-1.2v3h-2.1v1h2.1v9c0,.9.2,1.6.7,2,.5.4,1.1.7,2.1.7h1.6v-1h-1.5c-.6,0-1-.1-1.3-.4s-.4-.7-.4-1.3v-9h3.2v-1h-3.2v-3Z"/>
  <polygon class="st0" points="253.4 7.4 253 7.4 252.4 7.4 249.7 14.9 246.9 7.4 246.3 7.4 245.9 7.4 245.4 7.4 245.4 15.9 246.3 15.9 246.3 8.5 249.1 15.9 250.2 15.9 253 8.5 253 15.9 253.9 15.9 253.9 7.4 253.4 7.4"/>
  <polygon class="st0" points="237.2 8.3 240.1 8.3 240.1 15.9 241.1 15.9 241.1 8.3 244 8.3 244 7.4 237.2 7.4 237.2 8.3"/>
</svg>